# xmcd
#
# Track frame offsets: 
#        150
#        19871
#        38640
#        58560
#        77217
#        100880
#        123114
#        141411
#        166722
#        197207
#        217257
#        237191
#        257250
#        280389
#        310464
#        328461
#
# Disc length: 4622 seconds
#
# Revision: 0
# Processed by: cddbd v1.5.2PL0 Copyright (c) Steve Scherf et al.
# Submitted via: ExactAudioCopy v0.99pb3
#
DISCID=ea120c10
DTITLE=Tonex - Oak Park 921'06 Japan (2007)
DYEAR=2007
DGENRE=Gospel
TTITLE0=Now
TTITLE1=Alright
TTITLE2=You
TTITLE3=holy-NESS
TTITLE4=Can't U See?
TTITLE5=Priceless
TTITLE6=Fail U
TTITLE7=Out The Game (Featuring Gibraan)
TTITLE8=Feelings (feat. Karen Carpenter)
TTITLE9=Yes (feat. Montell Jordan)
TTITLE10=Like
TTITLE11=Anthony
TTITLE12=My Friend
TTITLE13=Tippy (Feat. Rhonda Patton)
TTITLE14=God'z Got It
TTITLE15=HUP! (feat. Omega)
EXTD=
EXTT0=
EXTT1=
EXTT2=
EXTT3=
EXTT4=
EXTT5=
EXTT6=
EXTT7=
EXTT8=
EXTT9=
EXTT10=
EXTT11=
EXTT12=
EXTT13=
EXTT14=
EXTT15=
PLAYORDER=
